<?xml version="1.0" standalone="no"?><!DOCTYPE svg PUBLIC "-//W3C//DTD SVG 1.1//EN" "http://www.w3.org/Graphics/SVG/1.1/DTD/svg11.dtd"><svg t="1751160976379" class="icon" viewBox="0 0 1024 1024" version="1.1" xmlns="http://www.w3.org/2000/svg" p-id="1539" xmlns:xlink="http://www.w3.org/1999/xlink" width="200" height="200"><path d="M797.056 3.072c53.184 4.992 93.184 30.592 120 76.8 26.88 46.08 29.312 93.44 7.36 142.144-21.952 48.64-59.072 78.272-111.424 88.704-49.664 9.92-93.248-1.28-130.816-33.536L390.592 487.936c7.232 23.808 8.64 48 4.096 72.576l280.96 192.128c35.52-34.304 78.272-47.936 128.256-40.96 52.864 7.296 91.712 34.624 116.48 81.92 24.768 47.232 25.152 94.656 1.152 142.272-24 47.68-62.4 75.584-115.072 83.84-52.736 8.192-97.792-6.784-135.104-44.864-35.84-36.544-50.24-79.744-43.2-129.6l-284.8-194.816a149.76 149.76 0 0 1-100.928 38.016 150.4 150.4 0 0 1-107.52-42.112 150.336 150.336 0 0 1-48.896-104.512 150.4 150.4 0 0 1 36.48-109.568 150.336 150.336 0 0 1 101.888-54.208 149.76 149.76 0 0 1 105.216 26.432l300.032-216.64c-9.984-49.28 1.792-93.184 35.2-131.84 35.072-40.32 79.104-57.92 132.224-52.928z m-14.528 810.24a50.56 50.56 0 0 0-37.12 15.36 50.56 50.56 0 0 0-15.36 37.12c0 14.464 5.12 26.88 15.36 37.12 10.24 10.24 22.656 15.36 37.12 15.36a50.56 50.56 0 0 0 37.12-15.36 50.56 50.56 0 0 0 15.36-37.12 50.56 50.56 0 0 0-15.36-37.12 50.56 50.56 0 0 0-37.12-15.36zM241.408 480.448a50.56 50.56 0 0 0-37.12 15.36 50.56 50.56 0 0 0-15.36 37.12c0 14.4 5.12 26.816 15.36 37.056 10.24 10.24 22.656 15.36 37.12 15.36a50.56 50.56 0 0 0 37.12-15.36 50.56 50.56 0 0 0 15.36-37.12 50.56 50.56 0 0 0-15.36-37.12 50.56 50.56 0 0 0-37.12-15.36z m541.12-374.656a50.56 50.56 0 0 0-37.12 15.36 50.56 50.56 0 0 0-15.36 37.12c0 14.464 5.12 26.88 15.36 37.12 10.24 10.24 22.656 15.36 37.12 15.36a50.56 50.56 0 0 0 37.12-15.36 50.56 50.56 0 0 0 15.36-37.12 50.56 50.56 0 0 0-15.36-37.12 50.56 50.56 0 0 0-37.12-15.36z" fill="#1F2037" p-id="1540"></path></svg>