<?xml version="1.0" standalone="no"?><!DOCTYPE svg PUBLIC "-//W3C//DTD SVG 1.1//EN" "http://www.w3.org/Graphics/SVG/1.1/DTD/svg11.dtd"><svg t="1751160958408" class="icon" viewBox="0 0 1024 1024" version="1.1" xmlns="http://www.w3.org/2000/svg" p-id="1235" xmlns:xlink="http://www.w3.org/1999/xlink" width="200" height="200"><path d="M908.572444 107.064889h0.170667l4.152889 4.152889q65.706667 65.706667 65.706667 158.606222 0 92.899556-65.706667 158.606222l-145.180444 145.180445q-14.961778 15.473778-36.750223 15.644444-21.731556 0.227556-37.148444-15.189333-15.36-15.36-15.189333-37.148445 0.170667-21.788444 15.872-36.920889l144.952888-145.009777q35.271111-35.271111 35.271112-85.219556 0-49.891556-35.271112-85.162667-35.271111-35.271111-85.219555-35.271111-49.891556 0-85.219556 35.271111L523.946667 329.784889q-15.246222 15.246222-36.750223 15.189333-21.504 0-36.693333-15.189333-15.189333-15.246222-15.189333-36.750222 0-21.447111 15.189333-36.693334l145.180445-145.123555Q661.333333 45.511111 754.232889 45.511111q89.884444 0 154.339555 61.553778z m-326.769777 326.371555h0.568889l4.096 4.209778q15.189333 15.189333 15.189333 36.693334t-15.189333 36.693333l-75.377778 75.377778q-15.189333 15.189333-36.693334 15.246222-21.504 0-36.750222-15.246222-15.189333-15.189333-15.189333-36.693334t15.189333-36.693333l75.377778-75.377778q15.246222-15.246222 36.693333-15.246222 18.375111 0 32.085334 11.036444z m-288.711111 1.820445q-21.504 0-36.693334 15.189333l-145.180444 145.123556Q45.511111 661.276444 45.511111 754.232889q0 92.899556 65.706667 158.606222Q176.924444 978.488889 269.880889 978.488889q92.899556 0 158.606222-65.706667l145.123556-145.180444q15.246222-15.189333 15.246222-36.693334t-15.246222-36.693333q-15.189333-15.189333-36.693334-15.246222-21.447111 0-36.693333 15.189333L354.986667 839.395556q-35.271111 35.271111-85.162667 35.271111-49.891556 0-85.162667-35.271111-35.271111-35.271111-35.271111-85.162667-0.056889-49.891556 35.214222-85.219556l145.123556-145.180444q15.189333-15.189333 15.189333-36.693333t-15.189333-36.693334q-15.189333-15.189333-36.693333-15.189333z" p-id="1236"></path></svg>